<svg xmlns="http://www.w3.org/2000/svg" xmlns:xlink="http://www.w3.org/1999/xlink" id="Layer_1" x="0" y="0" enable-background="new 0 0 32 32" version="1.1" viewBox="0 0 32 32" xml:space="preserve"><g><linearGradient id="SVGID_1_" x1="28.982" x2="17.302" y1="8.989" y2="1.384" gradientUnits="userSpaceOnUse"><stop offset="0" stop-color="#80C3E6"/><stop offset="1" stop-color="#3380C2"/></linearGradient><polygon fill="url(#SVGID_1_)" points="25 13.4 32 3 16 3 13.6 6.9"/><polygon points="13.6 6.9 14.9 4.8 25 13.4" opacity=".15"/><linearGradient id="SVGID_2_" x1="31.179" x2="22.264" y1="26.325" y2="20.438" gradientUnits="userSpaceOnUse"><stop offset="0" stop-color="#F38649"/><stop offset=".185" stop-color="#F28147"/><stop offset=".409" stop-color="#EF7242"/><stop offset=".654" stop-color="#EA5A3A"/><stop offset=".911" stop-color="#E4382E"/><stop offset="1" stop-color="#E12A29"/></linearGradient><polygon fill="url(#SVGID_2_)" points="29 32 29 17 25.1 14.5 18 25.5"/><polygon points="18 25.5 19.8 26.6 25.1 14.5" opacity=".15"/><linearGradient id="SVGID_3_" x1="2.35" x2="18.902" y1="13.96" y2="3.618" gradientUnits="userSpaceOnUse"><stop offset="0" stop-color="#42AB4A"/><stop offset="1" stop-color="#ADD155"/></linearGradient><polygon fill="url(#SVGID_3_)" points="3 0 3 15 7.1 17.5 25 13.4"/><linearGradient id="SVGID_4_" x1="5.753" x2="19.322" y1="32.595" y2="10.88" gradientUnits="userSpaceOnUse"><stop offset="0" stop-color="#42AB4A"/><stop offset="1" stop-color="#ADD155"/></linearGradient><polygon fill="url(#SVGID_4_)" points="7 18.7 0 29 16 29 25.1 14.5"/></g></svg>